<?xml version="1.0" standalone="no"?>
<!DOCTYPE svg PUBLIC "-//W3C//DTD SVG 20010904//EN"
 "http://www.w3.org/TR/2001/REC-SVG-20010904/DTD/svg10.dtd">
<svg version="1.0" xmlns="http://www.w3.org/2000/svg"
 width="700.000000pt" height="700.000000pt" viewBox="0 0 700.000000 700.000000"
 preserveAspectRatio="xMidYMid meet">
<metadata>
Created by potrace 1.14, written by Peter Selinger 2001-2017
</metadata>
<g transform="translate(0.000000,700.000000) scale(0.100000,-0.100000)"
fill="#000000" stroke="none">
<path d="M2835 4824 c-128 -26 -245 -70 -339 -127 -28 -17 -114 -78 -191 -136
-197 -147 -191 -143 -294 -206 -79 -48 -306 -167 -313 -164 -4 1 -39 -11 -63
-21 -119 -50 -299 -79 -460 -75 -154 4 -249 25 -414 92 -94 38 -124 46 -181
46 -147 1 -265 -104 -285 -254 -10 -76 42 -273 130 -489 266 -652 811 -1078
1470 -1147 151 -16 361 -7 513 22 80 15 298 78 331 95 9 4 63 31 121 58 113
54 225 124 330 205 76 59 234 217 270 270 14 20 28 37 31 37 4 0 24 -21 45
-47 149 -186 356 -349 589 -464 162 -79 310 -127 510 -163 103 -19 319 -25
456 -13 187 16 416 82 594 170 56 27 168 92 190 109 6 4 51 39 100 77 208 158
386 377 514 631 86 170 131 294 194 525 52 195 -78 375 -273 378 -58 1 -142
-20 -175 -44 -14 -10 -150 -57 -183 -64 -192 -39 -315 -43 -475 -14 -284 51
-539 182 -927 475 -146 110 -294 193 -375 210 -11 2 -47 11 -80 19 -40 9 -101
13 -180 12 -138 -3 -222 -25 -331 -84 -69 -37 -82 -46 -144 -100 -21 -18 -40
-33 -43 -33 -3 0 -25 16 -49 36 -148 125 -312 185 -498 183 -52 -1 -104 -3
-115 -5z"/>
</g>
</svg>
