<?xml version="1.0" standalone="no"?>
<!DOCTYPE svg PUBLIC "-//W3C//DTD SVG 20010904//EN"
 "http://www.w3.org/TR/2001/REC-SVG-20010904/DTD/svg10.dtd">
<svg version="1.0" xmlns="http://www.w3.org/2000/svg"
 width="512.000000pt" height="512.000000pt" viewBox="0 0 512.000000 512.000000"
 preserveAspectRatio="xMidYMid meet">
<metadata>
Created by potrace 1.14, written by Peter Selinger 2001-2017
</metadata>
<g transform="translate(0.000000,512.000000) scale(0.100000,-0.100000)"
fill="#000000" stroke="none">
<path d="M1730 3404 c-120 -23 -250 -80 -380 -167 -70 -47 -189 -134 -200
-147 -17 -19 -277 -215 -335 -252 -148 -94 -274 -124 -421 -99 -115 20 -182
47 -283 115 -120 81 -141 23 -66 -181 30 -80 92 -214 137 -293 99 -179 261
-354 425 -464 233 -155 468 -217 800 -211 77 2 154 6 170 9 15 3 44 8 63 11
72 12 197 44 270 71 264 95 485 260 648 484 2 2 6 -1 10 -7 40 -62 179 -209
247 -259 22 -16 42 -31 45 -34 16 -16 129 -84 196 -118 113 -57 238 -99 383
-128 108 -22 153 -26 311 -27 202 0 307 14 453 60 265 83 505 267 668 511 153
228 280 547 239 597 -19 23 -42 18 -108 -25 -34 -21 -76 -47 -94 -56 -97 -50
-290 -77 -389 -54 -49 11 -207 82 -219 99 -3 3 -23 18 -45 32 -32 21 -201 151
-275 212 -278 229 -516 337 -733 331 -155 -3 -223 -18 -342 -75 -91 -44 -201
-120 -290 -202 -27 -26 -52 -46 -55 -47 -3 0 -23 17 -45 38 -152 143 -338 248
-495 277 -64 12 -224 12 -290 -1z"/>
</g>
</svg>
