<svg id="visual" viewBox="0 0 900 600" width="900" height="600" xmlns="http://www.w3.org/2000/svg" xmlns:xlink="http://www.w3.org/1999/xlink" version="1.1"><rect x="0" y="0" width="900" height="600" fill="#030303"></rect><defs><linearGradient id="grad1_0" x1="33.3%" y1="0%" x2="100%" y2="100%"><stop offset="20%" stop-color="#3992d0" stop-opacity="1"></stop><stop offset="80%" stop-color="#3992d0" stop-opacity="1"></stop></linearGradient></defs><defs><linearGradient id="grad1_1" x1="33.3%" y1="0%" x2="100%" y2="100%"><stop offset="20%" stop-color="#3992d0" stop-opacity="1"></stop><stop offset="80%" stop-color="#357cb0" stop-opacity="1"></stop></linearGradient></defs><defs><linearGradient id="grad1_2" x1="33.3%" y1="0%" x2="100%" y2="100%"><stop offset="20%" stop-color="#306790" stop-opacity="1"></stop><stop offset="80%" stop-color="#357cb0" stop-opacity="1"></stop></linearGradient></defs><defs><linearGradient id="grad1_3" x1="33.3%" y1="0%" x2="100%" y2="100%"><stop offset="20%" stop-color="#306790" stop-opacity="1"></stop><stop offset="80%" stop-color="#2a5272" stop-opacity="1"></stop></linearGradient></defs><defs><linearGradient id="grad1_4" x1="33.3%" y1="0%" x2="100%" y2="100%"><stop offset="20%" stop-color="#243e55" stop-opacity="1"></stop><stop offset="80%" stop-color="#2a5272" stop-opacity="1"></stop></linearGradient></defs><defs><linearGradient id="grad1_5" x1="33.3%" y1="0%" x2="100%" y2="100%"><stop offset="20%" stop-color="#243e55" stop-opacity="1"></stop><stop offset="80%" stop-color="#1c2c3a" stop-opacity="1"></stop></linearGradient></defs><defs><linearGradient id="grad1_6" x1="33.3%" y1="0%" x2="100%" y2="100%"><stop offset="20%" stop-color="#141a21" stop-opacity="1"></stop><stop offset="80%" stop-color="#1c2c3a" stop-opacity="1"></stop></linearGradient></defs><defs><linearGradient id="grad1_7" x1="33.3%" y1="0%" x2="100%" y2="100%"><stop offset="20%" stop-color="#141a21" stop-opacity="1"></stop><stop offset="80%" stop-color="#030303" stop-opacity="1"></stop></linearGradient></defs><defs><linearGradient id="grad2_0" x1="0%" y1="0%" x2="66.7%" y2="100%"><stop offset="20%" stop-color="#3992d0" stop-opacity="1"></stop><stop offset="80%" stop-color="#3992d0" stop-opacity="1"></stop></linearGradient></defs><defs><linearGradient id="grad2_1" x1="0%" y1="0%" x2="66.7%" y2="100%"><stop offset="20%" stop-color="#357cb0" stop-opacity="1"></stop><stop offset="80%" stop-color="#3992d0" stop-opacity="1"></stop></linearGradient></defs><defs><linearGradient id="grad2_2" x1="0%" y1="0%" x2="66.7%" y2="100%"><stop offset="20%" stop-color="#357cb0" stop-opacity="1"></stop><stop offset="80%" stop-color="#306790" stop-opacity="1"></stop></linearGradient></defs><defs><linearGradient id="grad2_3" x1="0%" y1="0%" x2="66.7%" y2="100%"><stop offset="20%" stop-color="#2a5272" stop-opacity="1"></stop><stop offset="80%" stop-color="#306790" stop-opacity="1"></stop></linearGradient></defs><defs><linearGradient id="grad2_4" x1="0%" y1="0%" x2="66.7%" y2="100%"><stop offset="20%" stop-color="#2a5272" stop-opacity="1"></stop><stop offset="80%" stop-color="#243e55" stop-opacity="1"></stop></linearGradient></defs><defs><linearGradient id="grad2_5" x1="0%" y1="0%" x2="66.7%" y2="100%"><stop offset="20%" stop-color="#1c2c3a" stop-opacity="1"></stop><stop offset="80%" stop-color="#243e55" stop-opacity="1"></stop></linearGradient></defs><defs><linearGradient id="grad2_6" x1="0%" y1="0%" x2="66.7%" y2="100%"><stop offset="20%" stop-color="#1c2c3a" stop-opacity="1"></stop><stop offset="80%" stop-color="#141a21" stop-opacity="1"></stop></linearGradient></defs><defs><linearGradient id="grad2_7" x1="0%" y1="0%" x2="66.7%" y2="100%"><stop offset="20%" stop-color="#030303" stop-opacity="1"></stop><stop offset="80%" stop-color="#141a21" stop-opacity="1"></stop></linearGradient></defs><g transform="translate(900, 0)"><path d="M0 405.6C-44.7 375.6 -89.5 345.5 -134.7 325.2C-179.9 304.9 -225.6 294.3 -268.7 268.7C-311.8 243.1 -352.4 202.5 -374.7 155.2C-397.1 107.9 -401.4 54 -405.6 0L0 0Z" fill="#0d1115"></path><path d="M0 354.9C-39.2 328.6 -78.3 302.3 -117.9 284.6C-157.4 266.8 -197.4 257.5 -235.1 235.1C-272.8 212.7 -308.3 177.2 -327.9 135.8C-347.5 94.4 -351.2 47.2 -354.9 0L0 0Z" fill="#18232d"></path><path d="M0 304.2C-33.6 281.7 -67.1 259.1 -101 243.9C-134.9 228.7 -169.2 220.7 -201.5 201.5C-233.9 182.3 -264.3 151.9 -281.1 116.4C-297.9 81 -301 40.5 -304.2 0L0 0Z" fill="#203548"></path><path d="M0 253.5C-28 234.7 -55.9 216 -84.2 203.3C-112.4 190.6 -141 183.9 -167.9 167.9C-194.9 151.9 -220.2 126.6 -234.2 97C-248.2 67.5 -250.9 33.7 -253.5 0L0 0Z" fill="#274864"></path><path d="M0 202.8C-22.4 187.8 -44.7 172.8 -67.4 162.6C-90 152.4 -112.8 147.1 -134.4 134.4C-155.9 121.6 -176.2 101.3 -187.4 77.6C-198.6 54 -200.7 27 -202.8 0L0 0Z" fill="#2d5c81"></path><path d="M0 152.1C-16.8 140.8 -33.6 129.6 -50.5 122C-67.5 114.3 -84.6 110.4 -100.8 100.8C-116.9 91.2 -132.1 75.9 -140.5 58.2C-148.9 40.5 -150.5 20.2 -152.1 0L0 0Z" fill="#3371a0"></path><path d="M0 101.4C-11.2 93.9 -22.4 86.4 -33.7 81.3C-45 76.2 -56.4 73.6 -67.2 67.2C-78 60.8 -88.1 50.6 -93.7 38.8C-99.3 27 -100.3 13.5 -101.4 0L0 0Z" fill="#3787c0"></path><path d="M0 50.7C-5.6 46.9 -11.2 43.2 -16.8 40.7C-22.5 38.1 -28.2 36.8 -33.6 33.6C-39 30.4 -44 25.3 -46.8 19.4C-49.6 13.5 -50.2 6.7 -50.7 0L0 0Z" fill="#3992d0"></path></g><g transform="translate(0, 600)"><path d="M0 -405.6C43.8 -382.3 87.7 -359 142.7 -344.6C197.8 -330.3 264.1 -324.9 286.8 -286.8C309.5 -248.8 288.6 -178 301.2 -124.8C313.7 -71.5 359.7 -35.8 405.6 0L0 0Z" fill="#0d1115"></path><path d="M0 -354.9C38.4 -334.5 76.7 -314.1 124.9 -301.5C173.1 -289 231.1 -284.3 251 -251C270.8 -217.7 252.6 -155.8 263.5 -109.2C274.5 -62.6 314.7 -31.3 354.9 0L0 0Z" fill="#18232d"></path><path d="M0 -304.2C32.9 -286.7 65.8 -269.2 107.1 -258.5C148.4 -247.7 198.1 -243.7 215.1 -215.1C232.1 -186.6 216.5 -133.5 225.9 -93.6C235.3 -53.6 269.8 -26.8 304.2 0L0 0Z" fill="#203548"></path><path d="M0 -253.5C27.4 -238.9 54.8 -224.3 89.2 -215.4C123.6 -206.4 165.1 -203.1 179.3 -179.3C193.5 -155.5 180.4 -111.3 188.2 -78C196.1 -44.7 224.8 -22.3 253.5 0L0 0Z" fill="#274864"></path><path d="M0 -202.8C21.9 -191.1 43.8 -179.5 71.4 -172.3C98.9 -165.1 132.1 -162.4 143.4 -143.4C154.8 -124.4 144.3 -89 150.6 -62.4C156.9 -35.8 179.8 -17.9 202.8 0L0 0Z" fill="#2d5c81"></path><path d="M0 -152.1C16.4 -143.4 32.9 -134.6 53.5 -129.2C74.2 -123.8 99 -121.8 107.6 -107.6C116.1 -93.3 108.2 -66.8 112.9 -46.8C117.6 -26.8 134.9 -13.4 152.1 0L0 0Z" fill="#3371a0"></path><path d="M0 -101.4C11 -95.6 21.9 -89.7 35.7 -86.2C49.5 -82.6 66 -81.2 71.7 -71.7C77.4 -62.2 72.2 -44.5 75.3 -31.2C78.4 -17.9 89.9 -8.9 101.4 0L0 0Z" fill="#3787c0"></path><path d="M0 -50.7C5.5 -47.8 11 -44.9 17.8 -43.1C24.7 -41.3 33 -40.6 35.9 -35.9C38.7 -31.1 36.1 -22.3 37.6 -15.6C39.2 -8.9 45 -4.5 50.7 0L0 0Z" fill="#3992d0"></path></g></svg>