<?xml version="1.0" standalone="no"?>
<!DOCTYPE svg PUBLIC "-//W3C//DTD SVG 20010904//EN"
 "http://www.w3.org/TR/2001/REC-SVG-20010904/DTD/svg10.dtd">
<svg version="1.0" xmlns="http://www.w3.org/2000/svg"
 width="3000.000000pt" height="3000.000000pt" viewBox="0 0 3000.000000 3000.000000"
 preserveAspectRatio="xMidYMid meet">
<metadata>
Created by potrace 1.14, written by Peter Selinger 2001-2017
</metadata>
<g transform="translate(0.000000,3000.000000) scale(0.100000,-0.100000)"
fill="#000000" stroke="none">
<path d="M0 15000 l0 -15000 15000 0 15000 0 0 15000 0 15000 -15000 0 -15000
0 0 -15000z m14885 10570 c556 -32 996 -127 1380 -297 418 -185 895 -507 1317
-890 738 -671 1050 -984 1344 -1348 271 -336 506 -700 634 -983 233 -516 439
-1397 514 -2201 l15 -154 44 -46 c53 -54 118 -150 142 -206 9 -22 27 -88 41
-147 30 -133 32 -266 5 -433 -24 -146 -56 -377 -76 -545 -14 -123 -14 -130 16
-395 20 -181 40 -306 59 -380 104 -396 143 -626 130 -746 -19 -161 -90 -402
-170 -576 -22 -47 -40 -92 -40 -100 0 -8 13 -71 29 -141 16 -70 34 -165 39
-212 5 -47 20 -124 32 -171 l23 -87 -27 -103 c-15 -57 -31 -142 -36 -189 -5
-47 -13 -100 -19 -119 -7 -23 -7 -102 0 -255 10 -213 9 -226 -11 -307 -12 -46
-27 -93 -35 -105 -8 -12 -13 -48 -13 -86 0 -36 -3 -79 -7 -96 -4 -20 2 -65 16
-122 18 -74 20 -105 14 -168 -15 -158 -13 -206 7 -291 16 -66 18 -94 11 -131
-7 -34 -6 -57 4 -86 45 -127 63 -265 43 -332 -6 -25 -4 -57 9 -120 14 -69 16
-101 9 -157 -5 -38 -11 -104 -13 -145 -3 -67 -11 -131 -31 -241 -4 -26 0 -49
14 -82 33 -75 55 -191 48 -255 -10 -91 -33 -162 -63 -201 -16 -20 -42 -77 -58
-128 -25 -81 -27 -98 -19 -140 6 -26 8 -86 5 -133 -4 -51 -1 -107 6 -141 13
-60 13 -60 -32 -219 -44 -158 -82 -430 -66 -473 17 -43 41 -155 41 -190 0 -66
-33 -181 -66 -224 -17 -24 -35 -59 -38 -78 -4 -20 -21 -56 -39 -81 l-32 -46 3
-161 c3 -136 0 -180 -19 -272 -12 -62 -30 -120 -40 -134 -11 -13 -19 -40 -19
-60 0 -20 -7 -65 -15 -100 -11 -47 -13 -73 -5 -100 5 -20 10 -51 10 -69 0 -59
-39 -191 -70 -233 -38 -53 -42 -83 -44 -338 -2 -161 -6 -226 -17 -256 -10 -28
-12 -52 -7 -78 14 -69 17 -201 5 -261 -10 -50 -19 -67 -59 -108 -26 -27 -61
-53 -77 -59 -25 -9 -31 -19 -42 -62 -6 -29 -18 -64 -25 -78 -7 -15 -10 -29 -7
-33 9 -9 4 -239 -7 -317 -5 -37 -23 -109 -39 -160 -16 -52 -36 -134 -45 -182
-9 -48 -36 -138 -60 -200 -24 -62 -64 -200 -90 -307 -25 -107 -55 -229 -66
-270 -11 -41 -31 -124 -46 -185 -14 -62 -42 -145 -64 -190 -58 -118 -302 -495
-342 -528 -20 -16 -62 -35 -94 -43 -32 -9 -72 -26 -89 -38 -16 -13 -59 -39
-95 -59 -48 -27 -73 -49 -95 -84 -16 -26 -59 -83 -96 -127 -36 -45 -69 -91
-73 -103 -11 -35 -117 -192 -168 -248 -24 -27 -72 -86 -105 -131 -65 -86 -354
-368 -431 -421 -31 -21 -69 -36 -112 -44 -36 -6 -76 -17 -90 -25 -14 -8 -54
-31 -90 -51 -37 -22 -131 -57 -225 -86 -243 -74 -262 -84 -396 -213 -63 -61
-140 -128 -170 -147 -72 -48 -539 -260 -608 -277 -42 -10 -65 -10 -106 -1 -51
11 -54 11 -106 -20 -216 -127 -344 -173 -584 -209 -66 -10 -154 -28 -195 -39
-41 -12 -117 -24 -168 -28 l-94 -6 -47 -46 c-63 -62 -111 -71 -357 -71 -336 0
-502 32 -638 123 -44 30 -106 67 -135 82 l-55 27 -160 -21 c-89 -12 -258 -42
-377 -68 -212 -45 -218 -46 -280 -33 -56 12 -71 21 -115 65 -40 40 -53 61 -59
94 -5 30 -13 45 -28 51 -12 5 -119 32 -237 60 -186 45 -229 59 -322 105 l-106
54 -54 -11 c-49 -10 -66 -8 -182 21 -149 37 -224 66 -319 122 -149 88 -424
332 -498 441 -22 31 -39 61 -39 66 0 4 -30 30 -67 58 -37 27 -104 83 -148 125
-74 69 -87 77 -150 93 -94 24 -233 109 -344 210 -106 98 -234 337 -300 561
-11 39 -25 76 -29 83 -5 7 -32 19 -60 26 -102 27 -142 75 -178 209 -38 145
-68 209 -159 342 -47 69 -85 130 -85 135 0 6 -11 28 -24 49 -22 34 -31 39 -87
51 -53 12 -69 20 -114 65 -56 57 -65 80 -100 267 -14 78 -21 96 -65 154 -29
38 -58 93 -71 132 -12 37 -50 130 -84 208 -79 179 -91 225 -75 296 14 64 1
105 -85 254 -75 130 -125 230 -169 344 -30 77 -44 100 -72 119 -78 53 -105
114 -168 366 -55 222 -70 325 -86 590 -5 94 -19 222 -29 285 -17 101 -27 184
-62 510 -19 183 -6 307 39 368 23 30 26 46 34 185 9 159 28 262 55 304 12 19
18 62 23 176 8 168 23 230 68 286 21 26 32 53 37 91 11 90 37 183 58 215 11
17 44 62 73 100 l52 70 5 95 c5 92 4 95 -23 130 -36 44 -60 137 -60 231 0 41
-7 115 -15 164 -21 127 -19 200 10 326 23 99 24 116 13 169 -10 52 -9 67 10
137 47 167 101 331 135 403 19 41 37 92 40 113 8 51 -10 212 -27 251 -29 62
-38 120 -32 196 3 41 1 112 -5 157 -9 60 -9 97 -1 136 9 44 8 66 -5 113 -21
80 -12 238 22 364 16 62 25 122 25 174 0 43 6 104 14 135 8 31 17 103 21 161
4 58 13 131 21 163 8 32 14 99 14 150 -5 417 0 1080 10 1252 22 429 83 1126
151 1741 l31 281 -36 156 c-51 217 -54 264 -26 379 25 100 37 130 82 195 l28
42 -10 288 c-5 158 -13 412 -16 563 -13 553 36 1026 155 1514 122 500 273 822
596 1276 94 132 681 874 817 1034 507 593 954 974 1444 1228 252 131 459 205
815 292 584 142 1090 214 1759 249 141 8 542 6 695 -3z"/>
<path d="M14190 25324 c-743 -41 -1333 -131 -1876 -285 -474 -134 -871 -355
-1291 -717 -168 -145 -434 -416 -602 -612 -143 -167 -712 -878 -821 -1025
-459 -622 -652 -1166 -732 -2060 -16 -186 -16 -698 0 -1187 l14 -397 -36 -43
c-104 -121 -115 -221 -51 -478 l38 -154 -12 -106 c-60 -545 -117 -1135 -146
-1525 -30 -407 -37 -629 -33 -1070 1 -247 -1 -470 -5 -495 -6 -34 -6 -41 3
-30 16 21 4 -157 -15 -225 -8 -27 -17 -99 -20 -160 -4 -60 -13 -135 -22 -165
-11 -39 -14 -78 -9 -133 5 -70 2 -88 -25 -165 -31 -90 -54 -272 -32 -259 6 4
15 -16 22 -51 9 -48 8 -72 -5 -137 -14 -67 -15 -92 -5 -163 7 -46 9 -111 6
-145 -6 -59 -5 -61 9 -37 15 24 15 24 16 -30 0 -30 5 -84 10 -120 37 -241 33
-307 -27 -450 -33 -79 -143 -395 -143 -413 0 -4 13 7 30 25 40 45 39 32 -15
-179 -48 -186 -54 -255 -34 -368 6 -33 14 -109 17 -170 l7 -110 29 50 c16 28
38 61 49 75 l20 25 -7 -46 c-4 -25 -9 -143 -11 -262 -2 -119 -7 -237 -11 -263
-7 -46 -13 -55 -136 -216 -31 -41 -37 -57 -43 -120 -4 -40 -5 -98 -3 -128 l3
-55 23 40 c21 37 23 38 17 10 -9 -42 -41 -107 -67 -135 -13 -14 -32 -43 -43
-65 l-19 -40 -6 50 c-3 30 -9 -35 -13 -165 -5 -118 -11 -228 -14 -245 l-5 -29
-21 39 -21 40 -8 -100 c-4 -55 -12 -159 -18 -231 -11 -129 -4 -239 21 -353 5
-24 8 -45 7 -47 -2 -1 -23 48 -48 109 l-45 112 -3 -52 c-2 -29 1 -96 7 -150
24 -245 43 -407 61 -518 11 -66 25 -194 30 -285 19 -308 41 -440 113 -675 l21
-70 7 55 c4 30 7 95 8 144 1 49 4 86 8 83 3 -4 30 -102 59 -219 68 -273 119
-399 257 -639 61 -107 90 -178 118 -294 23 -97 24 -132 4 -137 -11 -2 -5 -23
28 -98 42 -93 67 -156 102 -253 9 -26 38 -71 64 -100 l48 -52 29 -155 c16 -85
30 -146 32 -136 2 11 12 85 21 165 l17 146 23 -45 c31 -59 95 -232 111 -297 6
-29 28 -78 47 -110 20 -32 50 -84 67 -116 17 -31 61 -101 97 -155 76 -111 99
-163 132 -291 l24 -92 6 92 c4 51 7 115 7 143 0 29 4 46 9 41 4 -6 30 -65 56
-133 26 -68 69 -165 96 -216 27 -52 67 -148 88 -214 22 -66 68 -178 102 -249
54 -108 74 -138 130 -193 64 -63 223 -169 235 -157 4 3 -10 41 -30 83 l-36 77
171 -164 c164 -157 217 -204 339 -301 34 -27 63 -61 77 -89 29 -61 94 -131
227 -246 138 -119 231 -181 332 -221 93 -37 190 -65 205 -60 6 2 -23 36 -65
76 -42 40 -74 72 -71 72 14 0 360 -157 455 -207 119 -61 296 -110 674 -184
116 -23 214 -45 219 -49 4 -3 -31 -32 -78 -64 -47 -32 -84 -60 -82 -62 2 -3
87 14 188 36 181 40 497 90 568 90 50 0 173 -56 277 -125 48 -32 104 -64 125
-71 61 -22 244 -35 423 -32 l169 3 -124 54 c-68 30 -127 57 -131 60 -4 3 142
6 325 6 321 0 334 1 383 22 34 15 99 28 185 38 170 20 217 34 351 101 81 40
434 238 522 292 6 3 0 -10 -11 -29 -52 -84 -82 -139 -77 -139 3 0 122 54 265
119 l260 119 129 125 c114 112 138 130 221 171 52 24 159 63 238 86 80 23 167
53 195 67 74 37 207 130 320 224 54 45 95 75 91 68 -5 -8 -31 -48 -59 -89 -27
-41 -41 -68 -30 -60 78 61 309 292 369 370 41 52 99 126 131 165 31 38 71 100
90 138 18 38 59 99 90 135 31 36 78 98 104 137 60 88 75 102 184 164 123 71
167 110 226 198 27 43 50 73 50 69 0 -4 -7 -35 -16 -68 -8 -33 -14 -62 -12
-64 6 -6 246 379 273 438 14 30 34 93 46 139 11 46 33 136 49 199 17 63 50
199 75 303 24 103 63 235 86 294 25 62 45 133 49 173 4 36 13 77 20 90 7 13
16 69 20 124 6 95 7 98 15 56 l9 -45 7 45 c6 40 9 208 5 357 -1 42 4 56 24 78
24 25 25 32 23 136 -1 99 1 109 15 97 13 -11 14 -10 4 9 -7 12 -12 24 -12 27
0 4 38 3 85 0 48 -4 85 -3 85 2 0 5 -7 31 -15 58 -19 62 -19 75 0 50 15 -18
15 -18 11 6 -28 151 -29 164 -16 248 7 46 15 80 19 74 3 -5 7 68 8 164 2 191
25 321 66 384 41 63 47 75 46 105 l0 30 -19 -35 -19 -35 -1 61 c0 37 10 93 25
144 14 46 25 104 25 129 0 25 5 63 10 83 6 21 17 79 24 130 8 51 15 80 16 63
1 -16 5 -39 9 -50 14 -34 23 85 20 265 -2 141 0 171 15 205 10 22 21 75 24
118 5 76 5 78 21 53 16 -24 17 -22 19 62 1 48 3 108 4 135 3 47 3 47 20 25 10
-13 26 -44 35 -70 11 -30 20 -43 25 -35 16 26 7 106 -23 191 -31 89 -31 101
-10 181 6 23 9 73 5 115 -3 41 -1 93 4 115 l10 40 1 -35 c2 -48 21 -19 21 33
0 20 15 86 34 145 33 100 34 110 23 158 -7 31 -10 90 -7 145 3 52 1 115 -4
140 -10 51 11 240 23 206 10 -28 41 81 34 121 -4 23 2 48 21 86 14 29 26 58
26 64 0 7 5 12 10 12 6 0 10 -9 10 -21 0 -11 5 -17 10 -14 15 9 12 81 -6 123
-9 20 -25 69 -36 107 -21 73 -21 79 6 243 8 51 12 108 9 126 -3 19 0 49 6 68
17 51 15 167 -3 203 -9 18 -17 71 -21 130 -5 95 -4 98 9 60 l14 -40 1 60 c1
42 -9 96 -33 175 -30 105 -33 120 -23 171 9 51 8 61 -17 114 -28 62 -32 86
-17 114 7 12 5 38 -4 78 -28 118 -20 217 11 133 l12 -35 1 56 c1 38 -8 81 -29
137 -32 89 -42 173 -15 138 13 -17 14 -14 17 25 2 24 -3 68 -11 97 l-14 53 31
45 c60 85 63 99 56 293 -3 97 -10 203 -15 235 -7 50 -5 66 11 104 15 33 20 67
20 133 0 108 16 193 35 185 28 -10 29 73 2 144 -17 44 -27 97 -31 165 -4 57
-22 165 -43 252 l-35 153 57 127 c117 259 167 430 167 572 0 115 -23 241 -94
521 -53 207 -64 269 -94 520 -30 252 -32 295 -24 375 19 168 41 329 72 530 35
230 36 393 2 495 -25 75 -89 166 -155 219 -37 30 -56 54 -61 75 -4 17 -14 117
-23 221 -68 814 -267 1657 -514 2179 -259 548 -779 1186 -1501 1841 -91 82
-221 202 -290 266 -440 412 -843 698 -1275 905 -367 176 -662 252 -1157 300
-154 14 -746 26 -898 18z m910 -229 c330 -33 618 -95 825 -176 156 -62 417
-192 574 -288 303 -185 555 -382 926 -726 72 -66 180 -165 240 -220 676 -612
1176 -1218 1439 -1744 253 -505 458 -1397 527 -2289 11 -144 5 -337 -17 -517
-4 -31 2 -21 24 40 41 117 71 175 99 188 21 9 28 6 59 -24 70 -67 79 -97 79
-254 0 -77 -6 -173 -13 -213 l-14 -73 -16 32 c-10 18 -22 34 -29 37 -15 4
-213 -294 -270 -408 -42 -81 -114 -286 -127 -360 -7 -38 30 43 73 158 13 34
29 61 35 59 12 -4 119 -325 221 -661 l66 -219 -35 -74 c-51 -106 -72 -133
-105 -133 -53 0 -62 17 -77 145 -8 66 -22 133 -30 150 -8 17 -41 60 -74 96
-49 55 -70 90 -116 198 -32 72 -59 130 -61 128 -1 -2 4 -38 12 -80 8 -43 30
-184 49 -315 107 -731 147 -1351 103 -1577 -47 -240 -164 -591 -319 -965 -70
-169 -109 -241 -117 -217 -4 9 -27 -43 -55 -124 -27 -76 -52 -137 -54 -134 -3
2 -25 -30 -50 -73 -24 -42 -51 -82 -59 -89 -9 -7 -34 -39 -57 -72 -22 -32 -77
-103 -121 -157 -115 -141 -107 -133 -99 -104 5 17 -14 0 -55 -48 -33 -41 -61
-68 -61 -61 0 7 -26 -12 -57 -43 -33 -32 -93 -75 -138 -99 -43 -24 -109 -65
-145 -92 -35 -28 -59 -42 -51 -33 23 28 2 18 -67 -31 -36 -26 -62 -41 -58 -34
5 8 -11 2 -35 -13 -168 -104 -281 -117 -425 -46 -92 45 -153 118 -299 355
-183 298 -272 433 -319 480 -60 59 -326 229 -353 224 -21 -4 -34 2 -27 13 4 7
3 8 -4 4 -6 -4 -37 6 -69 22 -72 36 -189 75 -202 68 -5 -4 -45 8 -88 24 -43
17 -91 33 -108 35 -16 3 -65 18 -107 34 -43 17 -83 28 -90 26 -7 -3 -64 10
-125 29 -62 19 -111 30 -108 26 3 -5 -32 3 -77 18 -46 14 -93 25 -105 25 -14
-1 -20 3 -16 10 3 5 1 7 -4 4 -6 -4 -43 7 -83 23 -54 22 -69 25 -59 13 12 -14
12 -16 -1 -11 -205 80 -254 98 -257 94 -3 -2 5 -10 17 -16 52 -28 4 -17 -115
25 -133 47 -150 52 -125 34 12 -8 11 -9 -5 -5 -149 40 -310 78 -354 82 -69 8
-118 -11 -512 -189 -151 -69 -310 -137 -352 -152 -77 -28 -77 -28 -123 -10
-26 10 -117 65 -203 123 -86 58 -198 134 -249 168 -125 85 -194 118 -243 116
-53 -2 -394 -85 -527 -129 -10 -3 1 6 23 21 22 14 38 26 35 26 -3 0 -60 -18
-125 -40 -134 -45 -136 -46 -109 -25 28 21 17 19 -90 -20 -107 -39 -110 -39
-101 -25 5 8 -114 -32 -136 -46 -4 -2 -27 -6 -51 -9 -23 -2 -71 -13 -105 -24
-35 -10 -63 -17 -63 -15 0 2 17 12 38 23 20 11 34 20 30 21 -5 0 -117 -39
-253 -89 -28 -10 -29 -10 -11 4 28 21 18 19 -71 -15 -92 -35 -99 -37 -55 -9
18 12 31 23 29 25 -2 2 -59 -12 -127 -31 -68 -19 -126 -32 -129 -30 -2 3 2 5
9 5 7 0 11 2 8 5 -3 3 -42 -10 -87 -30 -96 -41 -101 -42 -70 -15 48 41 -131
-49 -193 -97 l-63 -48 24 35 c12 19 -15 -3 -61 -50 -96 -97 -144 -172 -353
-555 -75 -137 -146 -260 -157 -272 -34 -36 -99 -63 -154 -63 -68 0 -115 32
-239 161 -54 57 -103 104 -108 104 -5 0 -29 27 -54 60 -30 40 -43 52 -38 35 6
-23 3 -22 -24 10 -17 19 -45 61 -63 93 -55 97 -130 200 -137 189 -4 -6 -19 11
-34 39 -27 47 -46 62 -48 37 -1 -18 -79 213 -79 233 0 10 -4 19 -9 21 -9 3
-47 266 -77 533 -9 77 -18 262 -21 410 -11 544 31 1211 143 2250 52 482 51
438 10 601 -63 251 -61 272 39 361 l55 49 -5 60 c-9 93 -35 978 -35 1162 0
621 105 1234 284 1665 104 251 256 506 464 782 137 181 674 846 806 1000 411
475 841 827 1261 1034 185 91 290 131 499 191 493 139 1070 231 1701 270 212
13 842 4 1025 -15z m4700 -6374 c0 -10 -16 -87 -37 -172 -46 -197 -46 -240 5
-507 23 -117 49 -268 57 -335 9 -67 29 -175 46 -239 37 -150 37 -183 -1 -239
-34 -50 -38 -77 -13 -86 11 -4 26 5 48 31 l32 38 21 -103 c50 -240 49 -291 -4
-461 -40 -128 -41 -128 -72 -66 -18 36 -46 68 -87 101 -70 55 -71 58 -149 317
-52 174 -52 178 -29 169 13 -5 33 -5 46 0 34 13 112 104 143 166 32 66 30 96
-15 245 -54 178 -214 773 -219 812 -7 61 69 202 165 306 43 45 63 53 63 23z
m-6 -327 c-9 -71 -18 -131 -20 -133 -12 -12 -2 150 13 205 9 35 18 62 20 60 1
-1 -4 -61 -13 -132z m-286 -866 c23 -44 34 -82 37 -128 l5 -65 -24 75 c-13 41
-33 100 -45 130 -24 62 -24 63 -13 56 5 -3 23 -33 40 -68z m-7113 -3564 c-28
-13 -27 -14 30 -7 33 5 95 7 138 5 44 -2 76 1 73 6 -3 5 36 2 87 -5 51 -8 100
-12 111 -9 10 3 75 -6 145 -19 317 -61 292 -60 594 -24 l270 32 108 -17 c60
-9 114 -14 119 -11 9 5 113 -6 190 -20 l25 -5 -25 15 c-19 12 -21 15 -5 11
168 -41 212 -48 279 -42 46 3 64 2 51 -4 -14 -6 2 -9 55 -10 73 -1 138 -12
250 -44 64 -18 73 -19 66 -7 -3 5 27 -1 67 -13 100 -31 136 -39 117 -26 -23
15 -4 12 100 -16 58 -15 145 -28 225 -34 161 -11 179 -15 288 -52 48 -17 90
-28 93 -25 3 3 62 -22 130 -54 130 -61 151 -69 118 -44 -34 26 -7 16 111 -39
167 -79 235 -122 251 -161 38 -91 43 -565 9 -815 -19 -138 -48 -227 -125 -382
-154 -307 -515 -823 -679 -970 -59 -53 -163 -109 -245 -133 -45 -13 -83 -16
-155 -13 -116 6 -163 26 -249 104 -128 115 -404 456 -552 679 -93 141 -125
207 -111 234 20 37 105 102 275 210 173 111 260 177 221 167 -224 -56 -688
-84 -1115 -67 -765 31 -1427 102 -1643 177 -39 13 -34 7 78 -98 66 -61 167
-158 224 -215 121 -121 118 -101 44 -298 -143 -376 -309 -636 -437 -684 -214
-80 -547 -21 -690 122 -48 49 -103 156 -181 355 -109 281 -297 860 -382 1182
-29 109 -36 153 -36 230 -1 122 17 190 105 406 66 162 73 174 130 230 36 35
55 49 48 34 -13 -24 -12 -24 21 4 29 25 188 106 207 106 3 0 -9 -11 -28 -25
-19 -14 -32 -25 -29 -25 3 0 43 15 90 34 46 18 95 37 109 41 22 7 23 6 12 -8
-11 -13 -4 -12 39 4 45 17 67 19 139 14 56 -4 80 -3 71 3 -16 11 229 8 322 -3
37 -5 70 -2 108 9 53 16 54 15 30 -3 -24 -18 -23 -18 50 -5 94 17 110 17 89 4
-16 -11 -13 -10 115 15 89 17 97 17 60 -1z"/>
<path d="M16070 20644 c-141 -12 -211 -27 -253 -54 -54 -34 -169 -131 -266
-224 -92 -88 -85 -75 47 89 145 179 147 183 42 75 -50 -52 -137 -151 -192
-220 -56 -69 -108 -132 -116 -140 -22 -23 99 156 173 257 64 86 64 87 16 35
-55 -58 -182 -224 -285 -373 -65 -95 -77 -117 -55 -104 5 4 -8 -31 -31 -77
-40 -82 -39 -82 27 -3 24 29 24 28 -3 -20 -70 -126 -70 -124 -15 -65 l52 55
-32 -60 c-18 -33 -36 -64 -41 -69 -4 -6 -8 -15 -8 -20 0 -6 28 16 62 49 67 64
63 57 -23 -45 l-54 -64 38 22 c20 12 54 32 75 44 l37 23 -19 -30 c-10 -17 16
3 58 45 42 41 76 71 76 67 0 -4 -18 -43 -40 -87 -22 -44 -40 -82 -40 -86 0 -3
37 25 83 62 125 103 126 104 101 74 -11 -14 -46 -55 -78 -92 -32 -38 -56 -68
-52 -68 4 0 33 14 66 30 66 34 77 34 28 0 -18 -12 -24 -19 -13 -15 359 118
606 179 1075 264 454 82 536 92 744 92 232 0 368 -27 581 -118 162 -69 424
-218 630 -357 123 -84 119 -81 106 -59 -5 10 -47 66 -93 125 -230 294 -519
578 -814 799 -282 212 -406 239 -1119 244 -236 1 -450 1 -475 -1z"/>
<path d="M11000 20434 c-460 -26 -892 -78 -1028 -125 -135 -46 -301 -210 -465
-459 -97 -148 -137 -230 -157 -332 -19 -90 -36 -238 -28 -238 3 0 22 27 42 60
116 187 252 335 343 372 56 22 69 23 313 22 168 0 312 -6 420 -17 91 -10 332
-35 535 -57 204 -22 440 -47 525 -56 85 -9 213 -17 284 -18 143 -3 137 -8 58
55 -16 12 -2 7 31 -11 32 -18 61 -30 64 -27 3 3 -10 32 -27 64 -36 64 -29 62
19 -6 22 -31 31 -38 31 -25 0 16 2 17 10 4 17 -26 11 -4 -15 54 -35 78 -32 80
17 12 23 -33 44 -54 46 -47 3 9 9 7 23 -5 24 -22 24 -11 -1 61 -26 75 -25 80
5 25 37 -69 30 -42 -26 97 -29 71 -73 191 -100 268 -26 77 -48 137 -48 133 -1
-5 10 -61 24 -125 13 -64 23 -118 22 -119 -1 -1 -43 74 -92 168 -115 218 -130
237 -54 68 98 -218 99 -215 -6 -70 -66 92 -173 229 -203 260 -7 8 20 -38 62
-103 42 -64 76 -120 76 -123 0 -3 -40 32 -90 79 -49 46 -115 102 -145 122
l-55 38 -172 2 c-95 1 -202 1 -238 -1z"/>
<path d="M15272 20348 c-100 -132 -180 -283 -232 -437 -35 -105 -35 -130 0
-43 47 115 150 320 213 425 36 59 64 107 62 107 -1 0 -21 -24 -43 -52z"/>
<path d="M15314 20278 c-36 -46 -90 -123 -121 -173 -56 -89 -138 -254 -130
-261 2 -2 35 51 73 118 38 67 110 184 160 260 50 76 89 138 88 138 -2 0 -33
-37 -70 -82z"/>
<path d="M15042 20273 c-33 -122 -42 -189 -47 -323 -4 -108 -3 -116 5 -55 31
231 43 317 56 379 20 95 11 94 -14 -1z"/>
<path d="M14906 20325 c28 -96 48 -251 57 -430 2 -33 4 5 5 85 2 156 -12 248
-47 322 -12 24 -19 34 -15 23z"/>
<path d="M12042 20064 c-1 -61 3 -137 9 -170 12 -70 40 -176 45 -171 2 2 -6
50 -17 108 -11 57 -24 158 -28 224 l-8 120 -1 -111z"/>
<path d="M12280 20104 c-75 -81 -142 -265 -139 -381 1 -31 3 -25 15 31 27 137
92 297 149 364 40 48 23 38 -25 -14z"/>
<path d="M12145 20048 c-22 -78 -34 -202 -26 -278 6 -61 7 -57 14 65 3 72 13
159 22 194 19 79 12 93 -10 19z"/>
<path d="M15150 19958 c-12 -22 -12 -22 6 -6 10 10 15 20 12 24 -4 3 -12 -5
-18 -18z"/>
<path d="M16042 19054 c-174 -25 -346 -81 -523 -169 -105 -52 -243 -141 -274
-175 -13 -14 3 -7 44 19 35 22 117 68 183 101 302 154 544 211 903 213 420 1
771 -78 1125 -252 48 -24 74 -33 60 -21 -47 38 -245 129 -380 174 -158 53
-333 91 -509 111 -156 19 -500 18 -629 -1z"/>
<path d="M10700 18975 c-333 -41 -551 -160 -645 -353 -25 -52 -29 -88 -4 -40
28 55 124 161 183 203 78 55 149 85 282 119 180 46 323 59 579 53 354 -8 479
-41 850 -225 242 -120 287 -141 270 -123 -19 19 -235 140 -350 195 -218 106
-378 153 -604 176 -137 13 -430 11 -561 -5z"/>
<path d="M16075 18723 c-280 -33 -448 -94 -935 -336 -191 -95 -205 -104 -208
-131 l-4 -29 109 7 c59 4 135 11 168 15 l60 8 -86 2 c-62 1 -90 5 -99 16 -6 8
-9 19 -6 24 8 12 102 48 163 62 46 10 47 10 90 -33 l43 -43 -6 31 c-12 63 38
122 158 184 70 37 271 110 301 110 9 0 12 -30 12 -107 0 -126 16 -182 75 -267
36 -51 37 -56 17 -51 -98 23 -330 66 -385 70 -55 5 -28 -4 144 -49 245 -63
435 -95 624 -103 205 -9 324 21 619 154 l144 65 161 -25 c89 -14 193 -29 231
-32 l70 -7 -80 57 c-394 277 -817 419 -1237 414 -62 -1 -126 -4 -143 -6z m722
-193 c112 -74 140 -149 82 -215 -31 -35 -184 -118 -242 -131 l-29 -7 35 49
c60 83 80 146 81 251 1 51 4 93 7 93 4 0 34 -18 66 -40z m-528 -25 c32 -16 41
-33 41 -75 0 -42 -20 -54 -69 -39 -37 11 -41 15 -50 61 -6 27 -11 53 -11 58 0
15 58 12 89 -5z m-186 -81 c43 -8 50 -30 12 -40 -26 -6 -75 17 -75 36 0 12 11
12 63 4z"/>
<path d="M10970 18625 c-319 -51 -619 -190 -908 -422 -52 -41 -92 -77 -89 -79
8 -9 166 25 262 56 180 57 165 58 364 -21 381 -152 564 -171 907 -94 104 24
497 145 491 152 -7 7 -127 -20 -236 -53 -147 -44 -148 -44 -117 9 33 56 56
147 56 224 l0 62 82 -35 c149 -64 219 -105 235 -139 l15 -31 28 28 c33 32 63
35 136 13 70 -21 81 -30 65 -49 -10 -12 -34 -16 -90 -18 l-76 -1 70 -7 c39 -4
119 -8 178 -9 l108 -1 -3 28 c-4 37 -34 51 -430 194 -422 152 -485 173 -599
192 -112 19 -329 20 -449 1z m-168 -213 c-5 -87 18 -180 62 -252 19 -30 33
-57 31 -59 -2 -1 -47 11 -100 29 -107 36 -183 82 -203 122 -16 35 -2 66 60
125 39 37 133 103 148 103 3 0 4 -31 2 -68z m540 1 c22 -20 23 -70 1 -95 -20
-22 -61 -23 -91 -2 -25 17 -31 81 -10 102 17 17 78 15 100 -5z m-216 -84 c9
-15 -15 -29 -51 -29 -30 0 -55 15 -55 32 0 12 98 9 106 -3z"/>
<path d="M14946 16255 c155 -357 171 -563 63 -785 -53 -109 -178 -238 -279
-287 -76 -38 -74 -42 7 -11 220 82 358 263 394 519 26 188 -49 437 -177 584
l-34 40 26 -60z"/>
<path d="M12052 16263 c-117 -149 -153 -354 -97 -546 57 -198 188 -378 325
-447 78 -39 108 -39 44 1 -195 122 -344 399 -344 640 0 91 30 217 75 317 19
39 32 72 30 72 -2 0 -17 -17 -33 -37z"/>
<path d="M14211 15509 c-79 -13 -227 -65 -301 -106 -36 -19 -112 -67 -170
-105 -137 -92 -185 -109 -330 -115 -136 -6 -236 12 -321 56 -30 16 -127 76
-215 135 -88 58 -180 112 -203 121 -78 27 -251 14 -251 -19 0 -20 22 -26 136
-42 117 -15 215 -55 402 -160 64 -37 144 -77 178 -90 92 -34 211 -48 310 -34
129 17 195 43 399 160 55 31 109 60 120 65 11 4 99 11 195 14 172 7 176 7 248
40 39 19 77 40 83 47 30 37 -139 56 -280 33z"/>
<path d="M11286 13621 c-7 -11 54 -31 174 -56 41 -9 154 -20 250 -25 326 -18
857 -91 1300 -180 448 -90 494 -91 1025 -40 420 41 585 51 845 51 397 0 856
-33 1076 -77 74 -15 137 -24 140 -21 30 30 -79 81 -226 106 -204 36 -326 42
-815 44 -514 1 -595 -3 -999 -53 -378 -47 -497 -55 -617 -42 -57 6 -270 41
-474 77 -390 70 -885 150 -1170 190 -194 27 -499 43 -509 26z"/>
</g>
</svg>
